<svg viewBox="0 0 64 64" fill="none" xmlns="http://www.w3.org/2000/svg">
  <!-- Main blade - white -->
  <path d="M56 8 L22 42" stroke="#FFFFFF" stroke-width="3.5" stroke-linecap="round"/>
  
  <!-- Blade tip -->
  <path d="M56 8 L60 4" stroke="#FFFFFF" stroke-width="2" stroke-linecap="round"/>
  
  <!-- Hamon (wave pattern) - subtle -->
  <path d="M52 12 Q50 14, 48 12 Q46 10, 44 12 Q42 14, 40 12 Q38 10, 36 12 Q34 14, 32 12 Q30 10, 28 12" stroke="rgba(255,255,255,0.4)" stroke-width="1" fill="none" stroke-linecap="round"/>
  
  <!-- Habaki section -->
  <rect x="22" y="38" width="4" height="3" fill="#FFFFFF" rx="0.5" transform="rotate(-45 24 39.5)"/>
  
  <!-- Tsuba (guard) - ring outline -->
  <circle cx="20" cy="44" r="5" fill="none" stroke="#FFFFFF" stroke-width="1.5" />
  <circle cx="20" cy="44" r="3.5" fill="none" stroke="rgba(255,255,255,0.5)" stroke-width="0.5" />
  <circle cx="20" cy="44" r="1.5" fill="#FFFFFF" />
  
  <!-- Tsuka (handle) -->
  <path d="M18 46 L8 56" stroke="#FFFFFF" stroke-width="5" stroke-linecap="round"/>
  
  <!-- Ito wrap pattern -->
  <path d="M17 47 L15 49 M15 49 L13 51 M13 51 L11 53 M11 53 L9 55" stroke="rgba(255,255,255,0.5)" stroke-width="1.5" stroke-linecap="round"/>
  
  <!-- Kashira (pommel) -->
  <circle cx="6" cy="58" r="2.5" fill="#FFFFFF" />
</svg>